<svg xmlns="http://www.w3.org/2000/svg" xmlns:xlink="http://www.w3.org/1999/xlink" style="width: 100%; height: 100%" viewBox="0 0 78 21" preserveAspectRatio="none" width="78" height="21"><defs><svg width="78" height="21" viewBox="0 0 78 21" fill="none" xmlns="http://www.w3.org/2000/svg" id="svg-1992358822_7023">
<path d="M19.5458 0.908261C18.9685 0.324893 18.1987 0.0061455 17.3808 0.0061455C16.5629 0.0061455 15.793 0.330907 15.2157 0.908261C14.6383 1.48562 14.3196 2.25542 14.3196 3.07334V3.41614C13.4596 2.15318 12.2387 1.16687 10.8134 0.5835C9.03319 -0.144207 7.04853 -0.19232 5.23227 0.445175C3.69868 0.992459 2.3876 1.97877 1.4494 3.3139C0.499171 4.64904 0 6.2127 0 7.84253V17.3809C0 18.1988 0.318748 18.9686 0.896102 19.552C1.47346 20.1354 2.24928 20.4541 3.06719 20.4541C3.88511 20.4541 4.65492 20.1354 5.23829 19.552C5.82166 18.9686 6.13439 18.1988 6.13439 17.3809V17.0381C6.99441 18.295 8.21527 19.2814 9.64061 19.8647C11.4208 20.5924 13.3994 20.6405 15.2157 19.997C16.7493 19.4498 18.0604 18.4634 18.9986 17.1283C19.9368 15.7992 20.4359 14.2355 20.4359 12.6057V3.07334C20.4359 2.25542 20.1172 1.48562 19.5338 0.908261H19.5458ZM5.6713 5.67745C5.09395 6.2548 4.76919 7.03062 4.76919 7.84854V17.3869C4.76919 17.838 4.59478 18.271 4.27002 18.5897C3.62651 19.2332 2.50788 19.2332 1.86437 18.5897C1.54563 18.271 1.3652 17.838 1.3652 17.3869V7.84854C1.3652 6.2969 1.92451 4.79939 2.9409 3.62062C3.95728 2.44787 5.35857 1.67807 6.89217 1.44953C7.2049 1.40142 7.52365 1.37736 7.8424 1.37736C9.06326 1.37736 10.2661 1.72017 11.3065 2.38172C12.6176 3.21166 13.5859 4.48665 14.0369 5.97214L14.061 6.05634C14.2294 6.63971 14.3136 7.24112 14.3136 7.84854V12.6177C14.3136 12.9545 14.2113 13.2793 14.0249 13.5619C13.8385 13.8446 13.5738 14.0611 13.2611 14.1874C12.9484 14.3137 12.6116 14.3498 12.2808 14.2836C11.95 14.2175 11.6493 14.0551 11.4088 13.8205C11.2344 13.6522 11.102 13.4356 11.0118 13.2071C10.9938 13.165 10.9818 13.1169 10.9697 13.0868L10.9577 13.0207C10.9517 12.9906 10.9457 12.9726 10.9457 12.9846C10.9457 12.9665 10.9457 12.9365 10.9397 12.8944C10.9397 12.8643 10.9397 12.8342 10.9276 12.8102H10.9096C10.9096 12.8102 10.9096 12.8042 10.9036 12.7981L10.6269 12.8222L10.9276 12.744V7.8305C10.9276 7.42154 10.8494 7.02461 10.6931 6.65173C10.5367 6.27886 10.3142 5.94207 10.0255 5.65339C9.73684 5.36471 9.40005 5.14219 9.02717 4.99184C8.6543 4.83547 8.25136 4.75128 7.84841 4.7633C7.03049 4.7633 6.26068 5.08205 5.67732 5.66542L5.6713 5.67745ZM19.0828 12.6177C19.0828 13.4717 18.9204 14.3077 18.5896 15.0955C18.2648 15.8834 17.7897 16.5931 17.1883 17.1945C16.5809 17.7959 15.8772 18.271 15.0894 18.5957C14.3015 18.9205 13.4716 19.0889 12.6176 19.0889H12.5875C11.2223 19.0889 9.86915 18.6439 8.76857 17.838C7.66197 17.0261 6.83203 15.8533 6.41705 14.5001C6.23061 13.8927 6.1404 13.2612 6.1404 12.6237V7.84854C6.1404 7.39147 6.32083 6.96447 6.63957 6.64572C6.95832 6.32697 7.39134 6.14655 7.8424 6.14655C8.29345 6.14655 8.72046 6.32697 9.04522 6.64572C9.36998 6.96447 9.54439 7.39147 9.54439 7.84854V12.6177C9.54439 13.4356 9.86314 14.2055 10.4465 14.7888C10.8795 15.2158 11.4208 15.5045 12.0162 15.6248C12.6116 15.7451 13.225 15.6849 13.7903 15.4504C14.3497 15.2158 14.8248 14.8249 15.1676 14.3197C15.5044 13.8145 15.6848 13.2252 15.6848 12.6177V3.07334C15.6848 2.85082 15.7269 2.6283 15.8111 2.42382C15.8953 2.21934 16.0216 2.0329 16.1779 1.87052C16.3343 1.71415 16.5208 1.58786 16.7312 1.50366C17.1462 1.33526 17.6153 1.32925 18.0303 1.50366C18.2348 1.58786 18.4212 1.71415 18.5836 1.87052C18.74 2.02689 18.8663 2.21332 18.9505 2.42382C19.0346 2.63431 19.0767 2.85082 19.0767 3.07334V12.6117L19.0828 12.6177Z" fill="#020418"></path>
<path d="M77.846 12.8064H69.8582C70.1058 13.5007 70.4741 14.026 70.9631 14.3822C71.4582 14.7384 72.0559 14.9166 72.7563 14.9166C73.3057 14.9166 73.7646 14.8079 74.1329 14.5905C74.5012 14.3671 74.8121 14.0381 75.0657 13.6034H77.6649C77.4958 14.0743 77.3087 14.4668 77.1034 14.7807C76.7834 15.2516 76.397 15.6713 75.9442 16.0396C75.4974 16.4078 75.0083 16.6886 74.477 16.8818C73.9517 17.081 73.3329 17.1807 72.6204 17.1807C70.8997 17.1807 69.5201 16.5407 68.4817 15.2607C67.6666 14.2464 67.259 13.0539 67.259 11.6834C67.259 10.6691 67.4975 9.73024 67.9745 8.86686C68.4515 7.99744 69.1126 7.32726 69.9579 6.85633C70.8092 6.37936 71.7359 6.14087 72.7382 6.14087C73.7102 6.14087 74.6038 6.3703 75.4189 6.82916C76.234 7.28198 76.8679 7.92499 77.3207 8.75818C77.7736 9.58533 78 10.4729 78 11.4208C78 11.8796 77.9486 12.3415 77.846 12.8064ZM75.4732 10.814C75.3223 10.0351 74.9993 9.44043 74.5042 9.02987C74.0091 8.61328 73.3963 8.40498 72.6657 8.40498C72.1223 8.40498 71.6454 8.52573 71.2348 8.76724C70.8303 9.0027 70.4922 9.33175 70.2205 9.75439C70.0454 10.0321 69.9005 10.3853 69.7858 10.814H75.4732Z" fill="#020418"></path>
<path d="M63.6089 16.8456V3.11609H66.0722V16.8456H63.6089Z" fill="#020418"></path>
<path d="M51.5996 16.8456V3.11609H54.063V7.48129C54.9626 6.62998 56.0373 6.20433 57.2871 6.20433C58.1927 6.20433 59.047 6.4398 59.85 6.91073C60.653 7.37563 61.287 8.04581 61.7519 8.92126C62.2168 9.79672 62.4492 10.7024 62.4492 11.6382C62.4492 12.5318 62.2319 13.4374 61.7972 14.3551C61.3685 15.2668 60.7617 15.9672 59.9768 16.4562C59.198 16.9392 58.3014 17.1807 57.2871 17.1807C56.5505 17.1807 55.9165 17.057 55.3852 16.8094C54.8599 16.5558 54.3528 16.1543 53.8637 15.6049V16.8456H51.5996ZM53.9181 11.5567C53.9181 12.6133 54.229 13.4374 54.8509 14.0291C55.4788 14.6208 56.2033 14.9166 57.0244 14.9166C57.8576 14.9166 58.558 14.6178 59.1255 14.02C59.6991 13.4223 59.9859 12.6435 59.9859 11.6835C59.9859 10.7356 59.693 9.96275 59.1074 9.36503C58.5278 8.76127 57.8153 8.45938 56.9701 8.45938C56.4207 8.45938 55.9044 8.60127 55.4214 8.88504C54.9384 9.16881 54.5671 9.55823 54.3075 10.0533C54.0479 10.5424 53.9181 11.0435 53.9181 11.5567Z" fill="#020418"></path>
<path d="M45.1694 17.1807C44.4448 17.1807 43.7475 17.0419 43.0773 16.7641C42.4071 16.4864 41.8305 16.106 41.3475 15.623C40.8645 15.134 40.4872 14.6057 40.2155 14.0382C39.8593 13.3016 39.6812 12.5197 39.6812 11.6925C39.6812 10.7386 39.9227 9.82994 40.4057 8.96656C40.8947 8.09714 41.5739 7.42093 42.4434 6.93792C43.3128 6.44887 44.2214 6.20435 45.1694 6.20435C46.1233 6.20435 47.032 6.44585 47.8953 6.92886C48.7587 7.41187 49.4289 8.08205 49.9059 8.93939C50.3828 9.79069 50.6213 10.7145 50.6213 11.7107C50.6213 12.4171 50.5036 13.0812 50.2681 13.7031C50.0387 14.3189 49.7217 14.8563 49.3172 15.3151C48.9187 15.774 48.5021 16.1302 48.0674 16.3838C47.6387 16.6374 47.1738 16.8336 46.6727 16.9724C46.1716 17.1113 45.6705 17.1807 45.1694 17.1807ZM45.1694 14.9166C46.0327 14.9166 46.7452 14.5997 47.3067 13.9657C47.8742 13.3318 48.158 12.5831 48.158 11.7197C48.158 11.1401 48.0191 10.5937 47.7414 10.0805C47.4636 9.56126 47.0863 9.16278 46.6093 8.88505C46.1384 8.60128 45.6614 8.4594 45.1784 8.4594C44.7014 8.4594 44.2154 8.59826 43.7203 8.87599C43.2313 9.15372 42.8449 9.54315 42.5611 10.0443C42.2834 10.5454 42.1445 11.1009 42.1445 11.7107C42.1445 12.3084 42.2834 12.8578 42.5611 13.3589C42.8388 13.8601 43.2132 14.2465 43.6841 14.5182C44.1611 14.7838 44.6562 14.9166 45.1694 14.9166Z" fill="#020418"></path>
<path d="M27.1555 16.8456V3.11609H30.0445L35.7229 13.0963H35.7591V3.11609H38.304V16.8456H35.4693L29.7366 6.86545H29.7004V16.8456H27.1555Z" fill="#020418"></path>
</svg></defs><use href="#svg-1992358822_7023"></use></svg>